<svg xmlns="http://www.w3.org/2000/svg" viewBox="0 0 100 100" fill="none">
  <path d="M50 8L58 25L75 17L67 34L92 42L75 50L92 58L67 66L75 83L58 75L50 92L42 75L25 83L33 66L8 58L25 50L8 42L33 34L25 17L42 25L50 8Z" fill="#29B5E8"/>
  <circle cx="50" cy="50" r="8" fill="white"/>
  <circle cx="50" cy="25" r="4" fill="white"/>
  <circle cx="50" cy="75" r="4" fill="white"/>
  <circle cx="25" cy="50" r="4" fill="white"/>
  <circle cx="75" cy="50" r="4" fill="white"/>
  <circle cx="33" cy="33" r="3" fill="white"/>
  <circle cx="67" cy="33" r="3" fill="white"/>
  <circle cx="33" cy="67" r="3" fill="white"/>
  <circle cx="67" cy="67" r="3" fill="white"/>
</svg>
